<svg width="28" height="29" viewBox="0 0 28 29" fill="none" xmlns="http://www.w3.org/2000/svg">
<g id="emojione-monotone:admission-tickets">
<path id="Vector" d="M15.1742 19.421C15.1247 19.2859 15.0238 19.1759 14.8935 19.1149C14.7632 19.054 14.614 19.047 14.4786 19.0955L14.325 19.1515C14.1903 19.2017 14.0808 19.3029 14.0202 19.4333C13.9596 19.5637 13.9528 19.7127 14.0013 19.848L14.682 21.7188C14.7835 21.9983 15.0977 22.1453 15.3768 22.0438L15.5308 21.9869C15.8104 21.8859 15.9574 21.5709 15.855 21.2904L15.1742 19.421ZM15.3116 21.5766L15.2797 21.5879C15.254 21.5968 15.2259 21.5954 15.2013 21.5839C15.1766 21.5725 15.1574 21.552 15.1475 21.5267L14.4817 19.6953C14.4727 19.6694 14.4742 19.6411 14.4858 19.6162C14.4974 19.5914 14.5182 19.5721 14.5438 19.5623L14.5762 19.5509C14.602 19.542 14.6303 19.5435 14.6551 19.5551C14.6798 19.5667 14.6991 19.5875 14.7087 19.6131L15.375 21.4436C15.3836 21.4696 15.3818 21.498 15.3699 21.5228C15.3581 21.5475 15.3372 21.5668 15.3116 21.5766ZM16.7081 18.7748L16.3485 18.9065C16.3409 18.909 16.3339 18.913 16.3279 18.9183C16.322 18.9235 16.3171 18.93 16.3137 18.9372C16.3102 18.9443 16.3083 18.9522 16.308 18.9601C16.3076 18.9681 16.3089 18.976 16.3117 18.9835L16.7396 20.1573L15.8904 19.1327C15.8716 19.1069 15.8265 19.0968 15.7942 19.1082L15.5269 19.2053C15.4945 19.2171 15.4796 19.2504 15.491 19.2836L16.334 21.5998C16.345 21.6308 16.3778 21.6474 16.411 21.6352L16.7707 21.5035C16.8035 21.4926 16.8179 21.4589 16.8065 21.4265L16.4242 20.3739L17.237 21.2751C17.2554 21.2996 17.3009 21.3106 17.3329 21.2992L17.5927 21.2047C17.6002 21.202 17.607 21.1979 17.6128 21.1925C17.6186 21.1872 17.6233 21.1808 17.6267 21.1736C17.63 21.1665 17.6319 21.1587 17.6322 21.1509C17.6325 21.143 17.6313 21.1351 17.6286 21.1277L16.7855 18.8116C16.7831 18.8039 16.7791 18.7968 16.7738 18.7908C16.7685 18.7847 16.7621 18.7798 16.7548 18.7764C16.7475 18.7729 16.7397 18.771 16.7316 18.7707C16.7236 18.7705 16.7156 18.7719 16.7081 18.7748ZM18.7749 20.2361L18.3137 20.4045L18.1155 19.8581L18.5159 19.7124C18.5233 19.7097 18.5302 19.7056 18.5361 19.7002C18.5419 19.6948 18.5466 19.6884 18.55 19.6812C18.5533 19.674 18.5552 19.6662 18.5555 19.6582C18.5558 19.6503 18.5545 19.6424 18.5517 19.6349L18.4205 19.2744C18.418 19.2668 18.414 19.2598 18.4087 19.2538C18.4034 19.2478 18.3969 19.243 18.3896 19.2396C18.3823 19.2362 18.3744 19.2344 18.3664 19.2342C18.3584 19.234 18.3505 19.2355 18.343 19.2386L17.9427 19.3843L17.7743 18.9223L18.2354 18.7551C18.2431 18.7526 18.2502 18.7484 18.2563 18.743C18.2623 18.7376 18.2672 18.731 18.2705 18.7236C18.2739 18.7162 18.2757 18.7082 18.2758 18.7001C18.276 18.6919 18.2744 18.6839 18.2713 18.6764L18.1409 18.3167C18.1384 18.3091 18.1344 18.3021 18.1291 18.2961C18.1238 18.2901 18.1173 18.2852 18.1101 18.2818C18.1028 18.2784 18.0949 18.2765 18.0869 18.2763C18.0789 18.2761 18.0709 18.2775 18.0635 18.2804L17.1854 18.5998C17.1779 18.6024 17.1709 18.6065 17.165 18.6118C17.1591 18.6172 17.1543 18.6236 17.1509 18.6309C17.1476 18.6381 17.1457 18.6459 17.1455 18.6539C17.1453 18.6619 17.1466 18.6698 17.1495 18.6773L17.9917 20.9938C17.9943 21.0014 17.9984 21.0083 18.0037 21.0142C18.0091 21.0202 18.0155 21.025 18.0227 21.0284C18.03 21.0318 18.0378 21.0337 18.0458 21.034C18.0538 21.0343 18.0617 21.033 18.0692 21.0301L18.9472 20.7103C18.9548 20.7079 18.9619 20.7038 18.9679 20.6985C18.9738 20.6932 18.9787 20.6867 18.982 20.6794C18.9853 20.6721 18.9871 20.6642 18.9872 20.6562C18.9873 20.6482 18.9858 20.6403 18.9827 20.6329L18.8519 20.2724C18.8494 20.2648 18.8454 20.2578 18.8401 20.2519C18.8348 20.2459 18.8284 20.2411 18.8212 20.2377C18.814 20.2343 18.8061 20.2324 18.7982 20.2321C18.7902 20.2318 18.7823 20.2332 18.7749 20.2361Z" fill="#F07605"/>
<path id="Vector_2" d="M27.125 18.4686L26.7448 17.4234L26.7369 17.4269C26.6684 17.4518 26.5956 17.463 26.5228 17.4598C26.4499 17.4566 26.3784 17.439 26.3123 17.4081C26.2462 17.3773 26.1869 17.3337 26.1377 17.2798C26.0885 17.226 26.0504 17.163 26.0256 17.0944C26.0004 17.0252 25.9893 16.9516 25.9928 16.8781C25.9964 16.8045 26.0145 16.7324 26.0461 16.6659C26.0777 16.5994 26.1222 16.5398 26.1771 16.4907C26.2319 16.4415 26.2959 16.4037 26.3655 16.3795L25.9858 15.3352C25.9831 15.3356 25.9805 15.3374 25.9779 15.3383C25.8393 15.3887 25.6864 15.382 25.5528 15.3197C25.4192 15.2574 25.3158 15.1445 25.2654 15.006C25.215 14.8674 25.2217 14.7145 25.284 14.5809C25.3463 14.4473 25.4591 14.3439 25.5977 14.2935L25.606 14.2913L25.2262 13.2461C25.1575 13.2721 25.0843 13.2842 25.0108 13.2817C24.9374 13.2793 24.8652 13.2623 24.7983 13.2318C24.7315 13.2013 24.6713 13.1579 24.6213 13.104C24.5713 13.0502 24.5325 12.9869 24.507 12.918C24.402 12.6297 24.5507 12.3103 24.8386 12.2053C24.8408 12.204 24.8443 12.2036 24.8469 12.2027L24.4672 11.1579C24.4641 11.1584 24.4611 11.1597 24.4584 11.1606C24.3248 11.2095 24.1774 11.2051 24.0469 11.1482C23.9164 11.0913 23.8128 10.9864 23.7576 10.8552C23.41 10.8956 23.0578 10.8609 22.7248 10.7535C22.3918 10.6461 22.0858 10.4685 21.8273 10.2326C21.8248 9.69489 21.9989 9.17119 22.323 8.74207C22.2391 8.62967 22.2009 8.48969 22.216 8.35026C22.2311 8.21083 22.2984 8.08228 22.4044 7.99044L21.6895 7.13907C21.6873 7.14038 21.686 7.14257 21.6834 7.14519C21.6276 7.19213 21.563 7.22758 21.4935 7.24951C21.4239 7.27144 21.3508 7.27943 21.2781 7.27301C21.2055 7.26658 21.1348 7.24588 21.0702 7.21209C21.0056 7.17829 20.9483 7.13207 20.9016 7.07607C20.8068 6.96322 20.7608 6.81737 20.7736 6.67059C20.7864 6.52382 20.857 6.38813 20.9698 6.29338C20.972 6.29207 20.9742 6.28988 20.9764 6.28769L20.2624 5.43676L20.2563 5.44201C20.2006 5.4904 20.1358 5.52722 20.0658 5.55032C19.9957 5.57342 19.9218 5.58234 19.8482 5.57656C19.7747 5.57078 19.703 5.55042 19.6374 5.51666C19.5719 5.48289 19.5137 5.43641 19.4662 5.37992C19.4188 5.32342 19.3831 5.25805 19.3612 5.18761C19.3393 5.11717 19.3316 5.04308 19.3387 4.96965C19.3457 4.89622 19.3673 4.82493 19.4022 4.75993C19.437 4.69493 19.4845 4.63753 19.5418 4.59107L19.5488 4.58582L18.8348 3.73444C18.7793 3.78267 18.7147 3.81937 18.6448 3.84238C18.5749 3.86539 18.5012 3.87426 18.4278 3.86848C18.3545 3.8627 18.283 3.84238 18.2176 3.8087C18.1522 3.77502 18.0942 3.72866 18.0469 3.67232C17.9999 3.61646 17.9644 3.55188 17.9423 3.48228C17.9203 3.41269 17.9122 3.33943 17.9185 3.2667C17.9248 3.19398 17.9454 3.1232 17.979 3.05843C18.0127 2.99365 18.0588 2.93615 18.1147 2.88919C18.1169 2.887 18.1195 2.88569 18.1217 2.88438L17.4072 2.03213L17.4002 2.03782C17.2913 2.12934 17.1513 2.17543 17.0092 2.16655C16.8672 2.15767 16.734 2.09451 16.6372 1.99013C16.2948 2.1633 15.9163 2.25337 15.5326 2.25307C15.1738 2.2536 14.8192 2.17527 14.4941 2.02361C14.1689 1.87195 13.8811 1.65067 13.6509 1.37544L1.17775 11.8488C1.59645 12.3482 1.79976 12.9934 1.74299 13.6426C1.68622 14.2918 1.37402 14.892 0.875 15.3111L5.37381 20.6766L7.3675 26.1563C7.97957 25.9338 8.65497 25.9635 9.24513 26.2389C9.83529 26.5144 10.2919 27.0129 10.5144 27.625L25.8156 22.0521C25.6252 21.5289 25.6182 20.9566 25.7956 20.4288C25.973 19.901 26.3243 19.4492 26.7921 19.1471C26.7517 19.0129 26.7636 18.8684 26.8254 18.7425C26.8871 18.6167 26.9941 18.5188 27.125 18.4686ZM21.9087 12.589L24.2471 19.0181C24.3087 19.1884 24.3003 19.3761 24.2237 19.5402C24.1471 19.7043 24.0086 19.8314 23.8385 19.8935L10.6409 24.6999C10.4709 24.7613 10.2836 24.7529 10.1198 24.6765C9.95603 24.6001 9.82924 24.4619 9.76719 24.2921L8.75525 21.5105C9.21199 21.6475 9.61857 21.9153 9.92469 22.2809L13.9449 18.9052L14.5206 18.6952C14.6342 18.6527 14.7304 18.5737 14.7941 18.4706C14.8579 18.3675 14.8855 18.2461 14.8728 18.1256L15.1677 17.8784L15.3339 18.3351C15.3365 18.3427 15.3406 18.3497 15.346 18.3557C15.3513 18.3617 15.3579 18.3665 15.3651 18.3699C15.3724 18.3733 15.3803 18.3752 15.3883 18.3754C15.3963 18.3757 15.4043 18.3743 15.4118 18.3714L15.7994 18.2297C15.807 18.2271 15.814 18.223 15.82 18.2177C15.826 18.2123 15.8308 18.2058 15.8342 18.1985C15.8376 18.1912 15.8395 18.1833 15.8398 18.1753C15.84 18.1673 15.8387 18.1593 15.8357 18.1518L15.6034 17.5131L15.6988 17.4321L16.0615 17.9414C16.0799 17.9663 16.1048 17.9576 16.1031 17.9265L16.0409 17.1456L16.1018 17.0944L16.4106 17.9423C16.4133 17.9498 16.4175 17.9567 16.4228 17.9626C16.4282 17.9685 16.4347 17.9733 16.442 17.9767C16.4492 17.9801 16.4571 17.982 16.465 17.9823C16.473 17.9826 16.481 17.9813 16.4885 17.9786L16.8761 17.8368C16.8838 17.8344 16.8908 17.8305 16.8969 17.8252C16.9029 17.82 16.9079 17.8136 16.9113 17.8063C16.9147 17.7991 16.9167 17.7912 16.9169 17.7832C16.9172 17.7752 16.9158 17.7673 16.9129 17.7598L16.5375 16.7286L16.8538 16.4639L17.2773 17.6277C17.2799 17.6353 17.2841 17.6422 17.2894 17.6482C17.2948 17.6541 17.3013 17.6589 17.3086 17.6623C17.3158 17.6657 17.3237 17.6676 17.3317 17.6679C17.3397 17.6682 17.3477 17.6668 17.3552 17.664L17.7144 17.5323C17.722 17.5297 17.729 17.5255 17.735 17.5201C17.741 17.5148 17.7458 17.5082 17.7493 17.5009C17.7527 17.4936 17.7546 17.4857 17.7549 17.4776C17.7553 17.4696 17.754 17.4616 17.7511 17.454L17.2655 16.1179L17.8049 15.6642L18.3741 17.2274C18.3798 17.2423 18.3911 17.2544 18.4055 17.2611C18.42 17.2679 18.4365 17.2688 18.4516 17.2637L18.8112 17.1329C18.8188 17.1302 18.8257 17.1261 18.8317 17.1207C18.8376 17.1154 18.8424 17.1089 18.8458 17.1016C18.8492 17.0944 18.8511 17.0865 18.8514 17.0785C18.8517 17.0705 18.8503 17.0625 18.8475 17.055L18.2162 15.319L21.7516 12.3506C21.8168 12.4175 21.8741 12.4945 21.9087 12.589ZM2.25356 12.0163L13.6294 2.46394C14.0501 2.76472 14.5362 2.96137 15.0477 3.03773C15.5591 3.1141 16.0814 3.06798 16.5716 2.90319C16.7518 2.96978 16.9439 2.99751 17.1356 2.98457L17.1369 2.98588C17.0362 3.39713 17.1255 3.85038 17.4182 4.19819C17.5569 4.36426 17.733 4.49512 17.932 4.58006C18.131 4.665 18.3473 4.70161 18.5631 4.68688L18.5644 4.68819C18.5123 4.89822 18.5105 5.11759 18.5593 5.32843C18.608 5.53927 18.7059 5.7356 18.845 5.90142C18.984 6.06725 19.1603 6.19786 19.3594 6.28263C19.5585 6.3674 19.7748 6.40391 19.9907 6.38919L19.992 6.3905C19.94 6.60052 19.9383 6.81986 19.9871 7.03066C20.0358 7.24145 20.1337 7.43774 20.2728 7.60354C20.4118 7.76934 20.588 7.89995 20.787 7.98475C20.9861 8.06955 21.2024 8.10612 21.4183 8.09151L21.4287 8.10375C21.3888 8.27924 21.3833 8.4608 21.4126 8.63838C21.1572 9.09438 21.0156 9.60525 20.9997 10.1276C20.9839 10.65 21.0943 11.1686 21.3216 11.6392L9.94656 21.1903C9.39111 20.7933 8.7253 20.5802 8.04256 20.5808C7.55494 20.5812 7.07354 20.6903 6.63337 20.9002L1.9635 15.3326C2.30209 14.8554 2.50744 14.2967 2.55842 13.7138C2.60941 13.1309 2.50418 12.545 2.25356 12.0163ZM25.9717 18.7385C25.5758 19.0796 25.268 19.5111 25.0744 19.9965C24.8808 20.4819 24.8071 21.0068 24.8596 21.5267L10.9064 26.6096C10.5748 26.1282 10.1207 25.744 9.59106 25.4966C9.06143 25.2492 8.47539 25.1476 7.89337 25.2021L6.66838 21.836C7.05843 21.5674 7.51836 21.4184 7.99181 21.4073L9.12581 24.5262C9.24999 24.866 9.50387 25.1427 9.83177 25.2956C10.1597 25.4485 10.5348 25.465 10.8749 25.3417L24.0717 20.5349C24.4115 20.4106 24.6882 20.1566 24.8411 19.8287C24.994 19.5007 25.0105 19.1255 24.8872 18.7853L22.5487 12.3563C22.4872 12.1915 22.3933 12.0406 22.2727 11.9126L22.3978 11.8076C22.2912 11.6782 22.1981 11.5382 22.12 11.3898C22.512 11.5692 22.9364 11.6812 23.3818 11.6926C23.5279 11.8159 23.6989 11.9083 23.8849 11.9616C23.8456 12.0209 23.8108 12.0835 23.7808 12.148C23.704 12.3115 23.6605 12.4886 23.6527 12.6691C23.6449 12.8496 23.6729 13.0298 23.7352 13.1993C23.8096 13.4022 23.9306 13.5848 24.0884 13.7323C24.2462 13.8799 24.4365 13.9884 24.6439 14.0489L24.6448 14.052C24.5247 14.2318 24.4484 14.4373 24.4222 14.652C24.396 14.8667 24.4206 15.0845 24.4939 15.2879C24.5686 15.4907 24.6898 15.6731 24.8477 15.8206C25.0055 15.9681 25.1957 16.0767 25.403 16.1376L25.4039 16.1398C25.2838 16.3197 25.2076 16.5253 25.1815 16.7401C25.1555 16.9548 25.1802 17.1727 25.2538 17.3761C25.3284 17.5788 25.4495 17.7613 25.6073 17.9088C25.7651 18.0563 25.9552 18.1649 26.1625 18.2258L26.1682 18.2411C26.0717 18.3929 26.005 18.5617 25.9717 18.7385Z" fill="#F07605"/>
<path id="Vector_3" d="M7.56034 19.8436C7.7932 20.1206 8.12643 20.2939 8.48691 20.3255C8.84739 20.357 9.20567 20.2443 9.48315 20.0121L20.2413 10.9781C20.518 10.745 20.691 10.4117 20.7226 10.0513C20.7542 9.69083 20.6417 9.33256 20.4097 9.05487L16.0146 3.81318C15.7819 3.53616 15.4488 3.36282 15.0885 3.33123C14.7281 3.29965 14.3699 3.41241 14.0926 3.64474L3.33365 12.6787C3.05691 12.9118 2.88385 13.2451 2.85236 13.6056C2.82087 13.9661 2.93353 14.3243 3.16565 14.6019L7.56034 19.8436ZM3.77246 13.2019L14.531 4.16756C14.6697 4.05152 14.8488 3.9952 15.029 4.01095C15.2091 4.02669 15.3757 4.11322 15.4922 4.25156L19.8869 9.49237C20.1288 9.78112 20.0908 10.2125 19.8029 10.4544L9.0439 19.4888C8.90532 19.6048 8.7264 19.6611 8.54638 19.6453C8.36635 19.6296 8.19992 19.5431 8.08359 19.4048L3.68846 14.1631C3.57242 14.0244 3.51611 13.8453 3.53185 13.6652C3.5476 13.485 3.63412 13.3184 3.77246 13.2019Z" fill="#F07605"/>
<path id="Vector_4" d="M8.80413 13.9781C8.82294 14.0074 8.85619 14.0139 8.88244 13.9912L9.18344 13.7401C9.20969 13.7173 9.21232 13.6806 9.1935 13.6517L8.92094 13.2728L9.12613 13.1013L9.45075 13.436C9.47657 13.4592 9.51288 13.4627 9.53957 13.4404L9.83925 13.1888C9.86682 13.1665 9.86594 13.1324 9.84013 13.1087L7.73313 11.0984C7.72072 11.0871 7.70458 11.0806 7.68774 11.0803C7.6709 11.08 7.65453 11.0858 7.64169 11.0967L7.20594 11.4624C7.19297 11.4731 7.18442 11.4883 7.18191 11.5049C7.17941 11.5215 7.18314 11.5385 7.19238 11.5526L8.80413 13.9781ZM7.97594 11.9117L8.78882 12.7539L8.63744 12.8812L7.94969 11.9336L7.97594 11.9117ZM10.0571 12.9259C10.0794 12.9521 10.1166 12.9556 10.1424 12.9333L10.6373 12.5177C10.7468 12.4247 10.8153 12.2922 10.8278 12.149C10.8402 12.0058 10.7956 11.8635 10.7038 11.7529L9.74082 10.6045C9.64809 10.4948 9.51576 10.4262 9.37267 10.4137C9.22958 10.4011 9.08733 10.4457 8.97694 10.5376L8.48082 10.9527C8.47473 10.9578 8.46973 10.9641 8.46609 10.9711C8.46246 10.9782 8.46028 10.9859 8.45966 10.9938C8.45905 11.0017 8.46003 11.0097 8.46253 11.0172C8.46504 11.0247 8.46902 11.0317 8.47425 11.0376L10.0571 12.9259ZM9.22325 10.9322C9.24448 10.915 9.27156 10.9068 9.29876 10.9092C9.32596 10.9117 9.35113 10.9246 9.36894 10.9453L10.3048 12.0609C10.3218 12.082 10.33 12.1088 10.3277 12.1358C10.3254 12.1628 10.3128 12.1878 10.2925 12.2057L10.1866 12.2946L9.11825 11.0206L9.22325 10.9322ZM11.2782 11.9012C11.3001 11.9275 11.3368 11.9306 11.3631 11.9087L11.6798 11.6431C11.686 11.6381 11.6911 11.6319 11.6949 11.6249C11.6986 11.6179 11.7009 11.6102 11.7016 11.6023C11.7023 11.5943 11.7014 11.5864 11.6989 11.5788C11.6965 11.5712 11.6925 11.5642 11.6873 11.5582L10.9509 10.6806L11.8273 11.2831C11.8535 11.3001 11.8732 11.2839 11.8609 11.2551L11.4195 10.2869L12.1554 11.1649C12.1773 11.1912 12.2144 11.1942 12.2403 11.1728L12.557 10.9072C12.5632 10.9022 12.5684 10.896 12.5722 10.889C12.576 10.882 12.5783 10.8742 12.5791 10.8663C12.5798 10.8583 12.5789 10.8503 12.5765 10.8427C12.5741 10.835 12.5701 10.828 12.5649 10.8219L10.9816 8.93412C10.9766 8.92789 10.9704 8.92273 10.9634 8.91894C10.9564 8.91516 10.9487 8.91282 10.9408 8.91209C10.9329 8.91135 10.9249 8.91223 10.9173 8.91466C10.9097 8.91709 10.9027 8.92103 10.8967 8.92625L10.6163 9.16162C10.5896 9.18393 10.5865 9.22637 10.5992 9.25568L11.1907 10.4912L10.0777 9.69275C10.0523 9.67481 10.009 9.67131 9.98319 9.69318L9.70275 9.92856C9.69656 9.93359 9.69144 9.93981 9.68768 9.94685C9.68392 9.95389 9.68161 9.96161 9.68088 9.96956C9.68014 9.97751 9.681 9.98552 9.68341 9.99313C9.68581 10.0007 9.68971 10.0078 9.69488 10.0139L11.2782 11.9012ZM12.8615 10.5717C12.8834 10.5984 12.9197 10.601 12.9464 10.5796L13.2399 10.3332C13.2462 10.3282 13.2513 10.3219 13.2551 10.3148C13.2588 10.3077 13.2611 10.2999 13.2618 10.2919C13.2625 10.2839 13.2616 10.2759 13.2591 10.2683C13.2566 10.2606 13.2526 10.2536 13.2474 10.2475L11.6645 8.35968C11.6595 8.35347 11.6532 8.34834 11.6462 8.34459C11.6391 8.34083 11.6314 8.33854 11.6234 8.33785C11.6155 8.33715 11.6074 8.33807 11.5998 8.34054C11.5922 8.34302 11.5852 8.347 11.5792 8.35225L11.2861 8.59856C11.2798 8.60352 11.2745 8.60971 11.2707 8.61675C11.2669 8.62379 11.2645 8.63154 11.2638 8.63952C11.2631 8.6475 11.264 8.65555 11.2664 8.66318C11.2689 8.6708 11.2729 8.67784 11.2782 8.68387L12.8615 10.5717ZM12.1409 8.459C12.146 8.46517 12.1523 8.47027 12.1594 8.47399C12.1665 8.47771 12.1743 8.47999 12.1823 8.48068C12.1902 8.48137 12.1983 8.48047 12.2059 8.47802C12.2135 8.47558 12.2206 8.47164 12.2267 8.46643L12.4568 8.27306L13.7553 9.82093C13.7657 9.83314 13.7804 9.8408 13.7964 9.84227C13.8123 9.84374 13.8282 9.83891 13.8406 9.82881L14.1338 9.5825C14.1399 9.57746 14.1451 9.57124 14.1488 9.5642C14.1526 9.55716 14.1549 9.54944 14.1556 9.5415C14.1564 9.53355 14.1555 9.52554 14.1531 9.51793C14.1507 9.51032 14.1468 9.50327 14.1416 9.49718L12.8427 7.94887L13.0772 7.75243C13.0835 7.74749 13.0887 7.7413 13.0924 7.73426C13.0962 7.72722 13.0985 7.71948 13.0992 7.71152C13.0998 7.70356 13.0988 7.69554 13.0963 7.68798C13.0937 7.68042 13.0896 7.67347 13.0842 7.66756L12.8379 7.374C12.833 7.36773 12.8269 7.36252 12.8199 7.3587C12.813 7.35489 12.8053 7.35254 12.7974 7.3518C12.7895 7.35106 12.7815 7.35195 12.7739 7.35441C12.7664 7.35688 12.7594 7.36086 12.7534 7.36612L11.9025 8.081C11.8964 8.08603 11.8913 8.09222 11.8876 8.09922C11.8839 8.10623 11.8816 8.1139 11.8808 8.12179C11.8801 8.12968 11.881 8.13764 11.8833 8.14521C11.8857 8.15278 11.8895 8.1598 11.8946 8.16587L12.1409 8.459ZM11.4991 12.9766C11.4063 12.8671 11.274 12.7985 11.1309 12.7858C10.9878 12.7731 10.8455 12.8173 10.7348 12.9088L10.6093 13.0147C10.4997 13.1077 10.4312 13.2402 10.4187 13.3834C10.4063 13.5266 10.4509 13.6689 10.5428 13.7794L11.822 15.3041C11.9147 15.4139 12.0469 15.4825 12.19 15.4952C12.333 15.5079 12.4753 15.4636 12.5859 15.3719L12.711 15.2661C12.9389 15.0749 12.9691 14.7284 12.7775 14.5013L11.4991 12.9766ZM12.3654 14.955L12.3387 14.9773C12.3176 14.9943 12.2907 15.0024 12.2637 15.0001C12.2367 14.9977 12.2117 14.985 12.1939 14.9646L10.9422 13.4719C10.9251 13.4507 10.9168 13.4236 10.9192 13.3965C10.9215 13.3693 10.9343 13.3441 10.9549 13.3262L10.9816 13.3043C11.0028 13.2869 11.0299 13.2785 11.0572 13.2809C11.0845 13.2833 11.1098 13.2962 11.1277 13.317L12.3789 14.8089C12.3958 14.8303 12.4038 14.8575 12.4013 14.8846C12.3987 14.9118 12.3859 14.937 12.3654 14.955ZM12.8046 11.8514C12.7997 11.8451 12.7936 11.8399 12.7867 11.8361C12.7797 11.8323 12.772 11.8299 12.7641 11.8292C12.7562 11.8284 12.7482 11.8293 12.7407 11.8318C12.7331 11.8343 12.7261 11.8382 12.7202 11.8435L12.4271 12.0902C12.4207 12.0952 12.4154 12.1013 12.4116 12.1084C12.4077 12.1154 12.4053 12.1232 12.4046 12.1312C12.4039 12.1392 12.4048 12.1473 12.4073 12.1549C12.4098 12.1625 12.4138 12.1696 12.4192 12.1756L13.2216 13.1324L12.0736 12.4595C12.0469 12.4424 12.0009 12.4481 11.9743 12.4696L11.7564 12.6524C11.7297 12.6752 11.7275 12.7106 11.7494 12.7377L13.3327 14.6251C13.3541 14.6514 13.3904 14.6553 13.4167 14.6326L13.7103 14.3862C13.7165 14.3813 13.7217 14.3752 13.7254 14.3682C13.7292 14.3612 13.7315 14.3535 13.7322 14.3456C13.7329 14.3377 13.732 14.3298 13.7295 14.3222C13.727 14.3147 13.723 14.3077 13.7177 14.3018L12.9984 13.4434L14.0703 14.0113C14.0961 14.0284 14.1429 14.0231 14.1688 14.0017L14.3801 13.8241C14.3863 13.8191 14.3914 13.813 14.3951 13.806C14.3989 13.799 14.4011 13.7913 14.4018 13.7834C14.4025 13.7755 14.4016 13.7676 14.3992 13.7601C14.3967 13.7525 14.3927 13.7456 14.3875 13.7396L12.8046 11.8514ZM13.8249 10.9164L13.1091 11.5171C13.103 11.5221 13.0979 11.5284 13.0942 11.5354C13.0905 11.5424 13.0882 11.5501 13.0875 11.558C13.0868 11.5659 13.0877 11.5739 13.0902 11.5814C13.0926 11.589 13.0965 11.596 13.1017 11.602L14.6846 13.4902C14.7073 13.5165 14.7432 13.5196 14.7699 13.4977L15.4848 12.8966C15.4911 12.8918 15.4964 12.8857 15.5003 12.8787C15.5042 12.8717 15.5066 12.864 15.5074 12.8561C15.5081 12.8481 15.5072 12.8401 15.5046 12.8325C15.5021 12.825 15.498 12.818 15.4926 12.8121L15.2463 12.5177C15.2413 12.5115 15.2351 12.5064 15.2281 12.5026C15.2211 12.4989 15.2134 12.4966 15.2055 12.4959C15.1975 12.4952 15.1896 12.4961 15.182 12.4986C15.1744 12.501 15.1674 12.505 15.1614 12.5102L14.7856 12.8261L14.412 12.3807L14.7388 12.106C14.7449 12.101 14.75 12.0949 14.7537 12.088C14.7574 12.081 14.7597 12.0734 14.7604 12.0656C14.7611 12.0577 14.7602 12.0498 14.7577 12.0424C14.7553 12.0349 14.7514 12.0279 14.7463 12.022L14.4999 11.728C14.4951 11.7217 14.4889 11.7164 14.4819 11.7125C14.4749 11.7087 14.4672 11.7063 14.4592 11.7056C14.4513 11.7048 14.4432 11.7057 14.4356 11.7082C14.428 11.7107 14.421 11.7148 14.4151 11.7201L14.0887 11.994L13.7728 11.6182L14.1486 11.3027C14.1549 11.2977 14.1602 11.2915 14.164 11.2844C14.1678 11.2774 14.1702 11.2696 14.1709 11.2616C14.1717 11.2535 14.1708 11.2455 14.1683 11.2378C14.1658 11.2301 14.1618 11.2231 14.1565 11.217L13.9102 10.9239C13.9052 10.9176 13.899 10.9124 13.8919 10.9086C13.8849 10.9048 13.8771 10.9025 13.8691 10.9018C13.8612 10.9011 13.8531 10.9021 13.8455 10.9046C13.8379 10.9071 13.8309 10.9111 13.8249 10.9164Z" fill="#F07605"/>
</g>
</svg>
